<svg xmlns="http://www.w3.org/2000/svg" viewBox="0 0 1307.32 247.64"><defs><style>.cls-1{stroke:#000;stroke-miterlimit:10;}</style></defs><g id="Layer_2" data-name="Layer 2"><g id="Layer_2-2" data-name="Layer 2"><path class="cls-1" d="M102.58,51.55a51,51,0,1,1-51-51A51,51,0,0,1,102.58,51.55Z"/><path class="cls-1" d="M225.66,124.12a51,51,0,1,1-51-51.05A51,51,0,0,1,225.66,124.12Z"/><path class="cls-1" d="M102.58,196.11a51,51,0,1,1-51-51.05A51,51,0,0,1,102.58,196.11Z"/><path class="cls-1" d="M375.44,195.81a57,57,0,0,1-28.76,8.86c-5.63.14-14.52.36-23.5-5-9.47-5.69-14-14.55-16-20.09a21.53,21.53,0,0,1-1.28-7.42V118.37H289.26V94.76h16.63l0-29.24H339.6V93.08h27.69v25.53h-28v47.47a15.16,15.16,0,0,0,12.09,12.11c7.37,1.2,12.61-4.07,13.07-4.56Z"/><path class="cls-1" d="M1179.12,195.81a57.1,57.1,0,0,1-28.77,8.86c-5.62.14-14.51.36-23.5-5-9.48-5.69-13.95-14.55-16-20.09a21.53,21.53,0,0,1-1.28-7.42V118.37h-16.66V94.76h16.63l0-29.24h33.67V93.08H1171v25.53h-28v47.47a15.16,15.16,0,0,0,12.1,12.11c7.37,1.2,12.61-4.07,13.07-4.56Z"/><path class="cls-1" d="M442.93,90.32c-32.48,0-58.8,25.28-58.8,56.46s26.32,56.45,58.8,56.45c18.82,0,39.31-4.76,50.07-18l.55.46c-6.33-5.68-12-11.85-18.57-17.4-6.09,7.06-17.28,9.61-27.59,9.61-15,0-27.63-9.66-31.56-22.86h85.89v-8.27C501.72,115.6,475.39,90.32,442.93,90.32Zm-26.62,47c0-13.09,12.09-23.71,27-23.71s27,10.62,27,23.71Z"/><path class="cls-1" d="M1248,90.32c-32.48,0-58.8,25.28-58.8,56.46s26.32,56.45,58.8,56.45c18.82,0,39.31-4.76,50.07-18l.55.46c-6.33-5.68-12-11.85-18.57-17.41-6.08,7.05-17.28,9.62-27.57,9.62-15,0-27.65-9.66-31.56-22.86h85.87v-8.27C1306.82,115.6,1280.49,90.32,1248,90.32Zm-26.62,47c0-13.09,12.09-23.71,27-23.71s27,10.62,27,23.71Z"/><path class="cls-1" d="M602.7,161.85l25.35,15c-10.82,15.83-29.93,26.34-51.69,26.34-33.74,0-61.1-25.27-61.1-56.45s27.36-56.46,61.1-56.46c22,0,41.24,10.72,52,26.82l-26.13,14.23a29.43,29.43,0,0,0-25.36-14.67c-16.35,0-29.61,13.58-29.61,30.34s13.26,30.33,29.61,30.33A29.45,29.45,0,0,0,602.7,161.85Z"/><path class="cls-1" d="M761.46,141.13v62.1H728.14v-62.7a22.33,22.33,0,0,0-3-11.3,25.06,25.06,0,0,0-19.69-12.53,24.52,24.52,0,0,0-17,5.42A26.14,26.14,0,0,0,679,142.64v60.59H647V48.73l-.72,0q16.38,0,32.72,0v54.42c3.35-3,17-14.27,36.08-13.18a47.62,47.62,0,0,1,20.79,6.21C751.91,105.28,761.46,122.68,761.46,141.13Z"/><path class="cls-1" d="M878.65,182.67S867.33,203,831.28,204.16,777.52,192,777.52,192l12.86-23.24c22.11,10.52,34.6,10.61,41.8,10.61s22.29-5.93,15.36-14c-6-7.05-24.76-8.27-33.11-8.43a34.52,34.52,0,0,1-11.83-2.36c-6.15-2.42-14.42-7-18.6-15.19-7.2-14,0-27.78,0-27.78s11.32-20.32,47.36-21.49,45.76,9.44,45.76,9.44L864.8,122.18c-17.54-7.21-28-7.28-34.33-7.28-7.19,0-24.18,6.46-15.38,14,6.76,5.79,23.71,7.63,32.2,8.21a44.22,44.22,0,0,1,18.39,5.21c4.9,2.71,10,6.72,13,12.56C885.85,168.92,878.65,182.67,878.65,182.67Z"/><path class="cls-1" d="M1013.41,92.12V203.5h-32V192.2c-3.35,3-17,14.27-36.08,13.18-14.64-.81-28.25-8.7-37.55-21a45.3,45.3,0,0,1-8.84-27.28V92.12h33.32V153.4a25.44,25.44,0,0,0,9.5,20.17,24.29,24.29,0,0,0,13.16,5.1c12.32.86,24.05-8.21,26.49-21.34V92.12Z"/><rect class="cls-1" x="1044.34" y="92.12" width="32.36" height="111.37"/><circle class="cls-1" cx="1060.52" cy="57.96" r="19.24" transform="translate(760.46 1076.79) rotate(-76.72)"/></g></g></svg>