<svg xmlns="http://www.w3.org/2000/svg" viewBox="0 0 229.88 249.32"><g id="Layer_2" data-name="Layer 2"><g id="Layer_2-2" data-name="Layer 2"><path d="M184.84,75.32H168.45a36.86,36.86,0,0,0-31.91,18.43l-8.19,14.19a36.8,36.8,0,0,0,0,36.84l8.19,14.2a36.85,36.85,0,0,0,31.91,18.42h16.39A36.85,36.85,0,0,0,216.75,159l8.19-14.2a36.8,36.8,0,0,0,0-36.84l-8.19-14.19A36.86,36.86,0,0,0,184.84,75.32Z"/><path d="M61.43,0H45A36.85,36.85,0,0,0,13.13,18.42L4.94,32.62a36.8,36.8,0,0,0,0,36.84l8.19,14.2A36.85,36.85,0,0,0,45,102.08H61.43A36.85,36.85,0,0,0,93.34,83.66l8.2-14.2a36.84,36.84,0,0,0,0-36.84l-8.2-14.2A36.85,36.85,0,0,0,61.43,0Z"/><path d="M61.43,147.24H45a36.85,36.85,0,0,0-31.91,18.42l-8.19,14.2a36.8,36.8,0,0,0,0,36.84l8.19,14.2A36.85,36.85,0,0,0,45,249.32H61.43A36.85,36.85,0,0,0,93.34,230.9l8.2-14.2a36.84,36.84,0,0,0,0-36.84l-8.2-14.2A36.85,36.85,0,0,0,61.43,147.24Z"/></g></g></svg>