<svg xmlns="http://www.w3.org/2000/svg" viewBox="0 0 82.66 133"><defs><style>.cls-1{fill:none;stroke:#000;stroke-miterlimit:10;stroke-width:10px;}</style></defs><g id="Layer_2" data-name="Layer 2"><g id="Layer_2-2" data-name="Layer 2"><path class="cls-1" d="M42.77,81H24.4a.08.08,0,0,1-.07,0c-1.63-4.1-4.4-11.51-8-16.07-1.77-2.21-3.06-3.9-4.17-5.34A33.46,33.46,0,0,1,6.2,30.19,31.23,31.23,0,0,1,9,23.51C18.91,5.63,39.32,5,40.47,5h1.72c1.16,0,21.56.63,31.52,18.51a31.28,31.28,0,0,1,2.76,6.68,33.49,33.49,0,0,1-5.93,29.35c-1.1,1.44-2.39,3.13-4.16,5.34-3.65,4.56-6.41,12-8,16.07a.1.1,0,0,1-.08,0H42.19"/><rect x="21.45" y="92" width="40" height="8.5" rx="4.25"/><rect x="21.45" y="108" width="40" height="8.5" rx="4.25"/><path d="M51.45,123.25a9.75,9.75,0,0,1-19.5,0Z"/></g></g></svg>