<svg xmlns="http://www.w3.org/2000/svg" viewBox="0 0 103.11 117.19"><g id="Layer_2" data-name="Layer 2"><g id="Layer_2-2" data-name="Layer 2"><path d="M0,76c.58-.93,7.48-11.66,20-12a24,24,0,0,1,15,5,25.46,25.46,0,0,1,34-3l3-1L69,46,68,29S62,18,57,17c0,0-4,3-12,3a15,15,0,0,1-12-6S37,0,41,0,65,3,65,3s7,3,15,17,13,13,23,59a6.4,6.4,0,0,1-.23,3.28A7.87,7.87,0,0,1,100,86c-7.27,5.74-31.24,26.54-45,26-1.77-.07-2.62-.12-2.62-.12-6.84-.45-8.82-1.53-12.38-.88a19.09,19.09,0,0,0-4.25,1.5A84.19,84.19,0,0,1,21,117c-2.6.46-9.88.94-21-9.13Z"/></g></g></svg>