<svg xmlns="http://www.w3.org/2000/svg" viewBox="0 0 1247 199.47"><defs><style>.cls-1{stroke:#000;stroke-miterlimit:10;}</style></defs><g id="Layer_2" data-name="Layer 2"><g id="Layer_2-2" data-name="Layer 2"><path class="cls-1" d="M118.43,156.11a53.27,53.27,0,0,1-7.29,17.22c-17.74,27.49-53,25.21-63.5,24.89-29.49-.88-42.3-18.95-46.34-24.55a4.15,4.15,0,0,1-.8-2.45V155.73a6.34,6.34,0,0,1,6.34-6.34H21a6.26,6.26,0,0,1,5.3,2.87,24.26,24.26,0,0,0,7.34,7.62c1.12.72,13.57,3.87,21.45,3.87,15.32,0,23.74-10.92,23.2-21.06-.36-6.79-7.24-14.13-9.57-16.28a31,31,0,0,0-8.5-5.52l-.94-.37c-4.9-1.91-11.88-4.83-20-9-13.44-6.81-20.16-10.22-24.89-15.32C2,83,1.31,65,1,57A52.69,52.69,0,0,1,2,43.58,52.82,52.82,0,0,1,9.29,26.36C27-1.13,55.56,1.47,66.09,1.47c40.18,0,42.3,21.86,45.22,25.62V44A6.34,6.34,0,0,1,105,50.3H91.55a4.26,4.26,0,0,1-3.64-2.11,24.7,24.7,0,0,0-7.81-8.38,25,25,0,0,0-15-3.88c-11.49.91-23.52,10.93-23,21.07.37,6.78,6.28,12.22,8.62,14.36a31,31,0,0,0,8.5,5.52l1.55.7C65.27,79.82,74,85,82.11,89.07c13.44,6.82,19.2,9.27,23.94,14.36,12.34,13.27,13.08,31.25,13.4,39.26A52.36,52.36,0,0,1,118.43,156.11Z"/><path class="cls-1" d="M287,168.87v4.22l-.4.44c-2.21,2.47-23.66,25.59-56.55,24.85-22.53-.5-39.37-10.51-48.75-17.54-31.2-23.38-33.15-68.68-33.15-80.39V99c0-11.7,2-57,33.15-80.39,9.38-7,26.22-17,48.75-17.54C258.59.43,278.52,17.77,284.73,24a6.34,6.34,0,0,1,1.86,4.49V44.22a6.34,6.34,0,0,1-6.34,6.34h-20a4.77,4.77,0,0,1-3.77-1.83c-3.5-4.5-13.22-15.13-26.9-14.72-11.25.34-19.66,7-24.35,11.68-15.58,15.58-16.55,45.77-16.55,53.56v1c0,7.8,1,38,16.55,53.55,4.69,4.69,13.1,11.35,24.35,11.69,16,.48,27.51-14.15,29.11-16.4l.21-.29,3-3.72a4.76,4.76,0,0,1,3.71-1.77h16.65a4.74,4.74,0,0,1,4.75,4.73Z"/><path class="cls-1" d="M407.34,2.63h-37S326,46.05,307.52,193.53a4.84,4.84,0,0,0,4.79,5.44H345a4.83,4.83,0,0,0,4.82-4.51c.58-8.68,2.12-27.72,5.09-37.56h67.86c3,9.84,4.51,28.88,5.09,37.56A4.83,4.83,0,0,0,432.7,199h32.71a4.84,4.84,0,0,0,4.79-5.44C451.77,46.05,407.34,2.63,407.34,2.63ZM362.86,119.9s7-40.74,25-74.37h2c18,33.63,25,74.37,25,74.37Z"/><path class="cls-1" d="M659.87,15.91a5,5,0,0,1,1.49,3.59V142.9l-.5,39s0,15-5.34,16c-5.9,1.1-23.16.06-23.16.06s-10.5,4.94-43.5-49.06-51-91-51-91V194.07A4.83,4.83,0,0,1,533,198.9H503.1a4.83,4.83,0,0,1-4.83-4.83V17.9s-.41-16,5.59-16h32s4-3,19,17,69,121,69,121V19a5,5,0,0,1,1.49-3.59L638.77,2A5.06,5.06,0,0,1,646,2Z"/><path class="cls-1" d="M833.77,24,822.35,35.41a5.11,5.11,0,0,1-3.59,1.49h-38.9V193.07A4.83,4.83,0,0,1,775,197.9H743.19a4.83,4.83,0,0,1-4.83-4.83V36.9h-38.9a5.11,5.11,0,0,1-3.59-1.49L684.45,24a5.08,5.08,0,0,1,0-7.18L697.37,3.88A5.1,5.1,0,0,1,701,2.4h116.3a5.1,5.1,0,0,1,3.59,1.48l12.92,12.93A5.08,5.08,0,0,1,833.77,24Z"/><path class="cls-1" d="M996.24,198.4H962.69a4.82,4.82,0,0,1-4.65-3.55c-2.79-10.32-14.09-42-54.21-80a3.06,3.06,0,0,1-1-2.23v-2.45a3.1,3.1,0,0,1,.76-2l11.64-13.36a6,6,0,0,1,3.82-2c6.46-.75,24.78-4.33,24.78-20.81v-15s0-21-26-21c0,0-19.77-1.5-19.77,9.5V193.57a4.83,4.83,0,0,1-4.83,4.83H861.42a4.83,4.83,0,0,1-4.83-4.83V24.4s3.27-21.5,17.27-21.5h65.78s47.22,1,47.22,47V69.44s-5.68,37.34-30.84,39.37a2.33,2.33,0,0,0-2.16,2.31v1.43s43.1,40.67,47.19,80.56A4.82,4.82,0,0,1,996.24,198.4Z"/><path class="cls-1" d="M1063.86,22V193.57a4.83,4.83,0,0,1-4.83,4.83h-28.34a4.83,4.83,0,0,1-4.83-4.83V22a5,5,0,0,1,1.49-3.59l13.92-13.92a5.06,5.06,0,0,1,7.18,0l13.92,13.92A5,5,0,0,1,1063.86,22Z"/><path class="cls-1" d="M1241.67,198.4h-29.21a4.83,4.83,0,0,1-4.83-4.64c-.51-13.46-4.71-52.64-35.77-69h-1c-31.06,16.35-35.26,55.53-35.77,69a4.83,4.83,0,0,1-4.83,4.64h-29.21a4.82,4.82,0,0,1-4.83-4.83c0-10.41.83-31.6,10-54.87A84.35,84.35,0,0,1,1141,104.87,79,79,0,0,1,1111.17,75a78.57,78.57,0,0,1-10-34.83V23.4a5,5,0,0,1,1.49-3.59L1117.53,5a5.06,5.06,0,0,1,7.18,0L1139,19.28a5.06,5.06,0,0,1,1.49,3.69c-.1,4.19-.39,9.5,0,16.24C1142.74,51,1146.8,61,1153,69.06c3.42,4.49,10,10,17.91,14.92h1c8-5,14.49-10.43,17.91-14.92C1195.92,61,1200,51,1202.2,39.21c.42-6.74.13-12,0-16.24a5.06,5.06,0,0,1,1.49-3.69L1218,5a5.06,5.06,0,0,1,7.18,0L1240,19.81a5,5,0,0,1,1.49,3.59V40.2a78.57,78.57,0,0,1-10,34.83,79,79,0,0,1-29.84,29.84,84.35,84.35,0,0,1,34.82,33.83c9.14,23.27,10,44.46,10,54.87A4.82,4.82,0,0,1,1241.67,198.4Z"/></g></g></svg>