<svg xmlns="http://www.w3.org/2000/svg" viewBox="0 0 1018.55 167.74"><defs><style>.cls-1{stroke:#000;stroke-miterlimit:10;}</style></defs><g id="Layer_2" data-name="Layer 2"><g id="Layer_2-2" data-name="Layer 2"><path class="cls-1" d="M86.68,157.59a56.86,56.86,0,0,1-28.76,8.86c-5.63.14-14.52.37-23.51-5-9.46-5.69-13.95-14.55-16-20.08a21.57,21.57,0,0,1-1.28-7.42V80.16H.5V56.54H17.13l0-29.24H50.84V54.86H78.52V80.4h-28v47.46A15.15,15.15,0,0,0,62.58,140c7.37,1.2,12.61-4.07,13.07-4.56Z"/><path class="cls-1" d="M890.36,157.59a56.91,56.91,0,0,1-28.78,8.86c-5.62.14-14.5.37-23.49-5-9.48-5.69-14-14.55-16-20.08a21.57,21.57,0,0,1-1.28-7.42V80.16H804.18V56.54h16.63l0-29.24h33.67V54.86H882.2V80.4h-28v47.46A15.14,15.14,0,0,0,866.26,140c7.36,1.2,12.6-4.07,13.07-4.56Z"/><path class="cls-1" d="M154.17,52.1c-32.48,0-58.8,25.28-58.8,56.47S121.69,165,154.17,165c18.81,0,39.31-4.76,50.07-18l.55.45c-6.33-5.68-12-11.85-18.57-17.39-6.1,7-17.28,9.6-27.59,9.6-15,0-27.63-9.66-31.56-22.86H213v-8.26C213,77.38,186.63,52.1,154.17,52.1Zm-26.62,47c0-13.09,12.08-23.7,27-23.7s27,10.61,27,23.7Z"/><path class="cls-1" d="M959.27,52.1c-32.48,0-58.8,25.28-58.8,56.47S926.79,165,959.27,165c18.81,0,39.31-4.76,50.07-18l.55.45c-6.33-5.68-12-11.85-18.57-17.41-6.08,7.06-17.28,9.62-27.57,9.62-15,0-27.65-9.66-31.56-22.86h85.86v-8.26C1018.05,77.38,991.73,52.1,959.27,52.1Zm-26.62,47c0-13.09,12.08-23.7,27-23.7s27,10.61,27,23.7Z"/><path class="cls-1" d="M313.93,123.63l25.36,15.05C328.47,154.51,309.36,165,287.6,165c-33.75,0-61.1-25.26-61.1-56.44S253.85,52.1,287.6,52.1c22,0,41.24,10.72,52,26.82L313.47,93.16a29.42,29.42,0,0,0-25.36-14.68c-16.36,0-29.61,13.58-29.61,30.34s13.25,30.33,29.61,30.33A29.43,29.43,0,0,0,313.93,123.63Z"/><path class="cls-1" d="M472.7,102.92V165H439.38v-62.7a22.26,22.26,0,0,0-3-11.29,25.1,25.1,0,0,0-19.69-12.54,24.57,24.57,0,0,0-17,5.42,26.14,26.14,0,0,0-9.53,20.52V165h-32V10.51l-.72,0,32.72,0V64.93c3.35-3,17-14.26,36.08-13.18A47.62,47.62,0,0,1,447.1,58C463.15,67.06,472.7,84.47,472.7,102.92Z"/><path class="cls-1" d="M589.89,144.45s-11.32,20.32-47.38,21.49-53.75-12.21-53.75-12.21l12.86-23.24c22.11,10.52,34.6,10.61,41.8,10.61s22.29-5.93,15.36-14c-6-7.06-24.76-8.27-33.11-8.44a34.42,34.42,0,0,1-11.83-2.35c-6.15-2.43-14.42-7-18.6-15.2-7.2-14,0-27.77,0-27.77S506.56,53,542.6,51.84s45.76,9.43,45.76,9.43L576,84c-17.53-7.21-28-7.28-34.32-7.28-7.19,0-24.18,6.46-15.38,14,6.76,5.79,23.71,7.64,32.2,8.21a44.3,44.3,0,0,1,18.39,5.21c4.9,2.71,10,6.72,13,12.57C597.09,130.7,589.89,144.45,589.89,144.45Z"/><path class="cls-1" d="M724.65,53.91V165.28h-32V154c-3.35,2.95-17,14.26-36.08,13.18-14.64-.82-28.26-8.71-37.55-21.06a45.31,45.31,0,0,1-8.85-27.28V53.91H643.5v61.27a25.38,25.38,0,0,0,9.5,20.17,24.29,24.29,0,0,0,13.16,5.1c12.32.86,24.05-8.21,26.49-21.34V53.91Z"/><rect class="cls-1" x="755.57" y="53.91" width="32.36" height="111.37"/><circle class="cls-1" cx="771.76" cy="19.74" r="19.24" transform="translate(575.23 766.32) rotate(-76.72)"/></g></g></svg>